<svg width="24" height="24" viewBox="0 0 24 24" fill="none" xmlns="http://www.w3.org/2000/svg">
<path d="M20.8874 11.4292C20.816 11.2452 20.7089 11.0771 20.5723 10.9346L13.0692 3.44077C12.9293 3.30103 12.7632 3.19018 12.5804 3.11455C12.3975 3.03893 12.2016 3 12.0037 3C11.6041 3 11.2209 3.15855 10.9383 3.44077C10.7984 3.58052 10.6874 3.74642 10.6117 3.929C10.536 4.11158 10.497 4.30727 10.497 4.5049C10.497 4.90402 10.6557 5.2868 10.9383 5.56902L15.8904 10.5H4.50062C4.10263 10.5 3.72094 10.6579 3.43952 10.9389C3.1581 11.22 3 11.6012 3 11.9987C3 12.3962 3.1581 12.7774 3.43952 13.0585C3.72094 13.3396 4.10263 13.4975 4.50062 13.4975H15.8904L10.9383 18.4284C10.7976 18.5678 10.686 18.7335 10.6098 18.9162C10.5336 19.0988 10.4944 19.2947 10.4944 19.4925C10.4944 19.6904 10.5336 19.8863 10.6098 20.0689C10.686 20.2516 10.7976 20.4173 10.9383 20.5567C11.0778 20.6971 11.2438 20.8086 11.4266 20.8847C11.6095 20.9608 11.8056 21 12.0037 21C12.2018 21 12.398 20.9608 12.5808 20.8847C12.7637 20.8086 12.9297 20.6971 13.0692 20.5567L20.5723 13.0628C20.7089 12.9203 20.816 12.7522 20.8874 12.5683C21.0375 12.2034 21.0375 11.7941 20.8874 11.4292Z" fill="black"/>
</svg>
