<svg width="20" height="20" viewBox="0 0 20 20" fill="none" xmlns="http://www.w3.org/2000/svg">
<path d="M19.4281 17.071L12.357 9.99998L19.4281 2.92891C19.7407 2.61635 19.9162 2.19243 19.9162 1.7504C19.9162 1.30837 19.7407 0.884449 19.4281 0.571889C19.1155 0.259329 18.6916 0.0837338 18.2496 0.0837342C17.8076 0.0837339 17.3836 0.259328 17.0711 0.571889L10 7.64296L2.92893 0.571889C2.61637 0.259328 2.19245 0.0837339 1.75042 0.0837342C1.30839 0.0837338 0.88447 0.259329 0.57191 0.571889C0.25935 0.884449 0.0837549 1.30837 0.0837553 1.7504C0.083755 2.19243 0.259349 2.61635 0.57191 2.92891L7.64298 9.99998L0.571909 17.071C0.25935 17.3836 0.0837537 17.8075 0.0837537 18.2496C0.0837544 18.6916 0.25935 19.1155 0.57191 19.4281C0.88447 19.7406 1.30839 19.9162 1.75042 19.9162C2.19245 19.9162 2.61637 19.7406 2.92893 19.4281L10 12.357L17.0711 19.4281C17.3836 19.7406 17.8076 19.9162 18.2496 19.9162C18.6916 19.9162 19.1155 19.7406 19.4281 19.4281C19.7407 19.1155 19.9162 18.6916 19.9162 18.2496C19.9162 17.8075 19.7407 17.3836 19.4281 17.071Z" fill="#727070"/>
</svg>
