<svg width="24" height="24" viewBox="0 0 24 24" fill="none" xmlns="http://www.w3.org/2000/svg">
<path d="M8.99005 23L8.55224 19.48C8.31509 19.3883 8.09144 19.2783 7.8813 19.15C7.67115 19.0217 7.4661 18.8842 7.26617 18.7375L4.00995 20.1125L1 14.8875L3.81841 12.7425C3.80017 12.6142 3.79104 12.4902 3.79104 12.3707V11.6293C3.79104 11.5098 3.80017 11.3858 3.81841 11.2575L1 9.1125L4.00995 3.8875L7.26617 5.2625C7.46683 5.11583 7.67662 4.97833 7.89552 4.85C8.11443 4.72167 8.33333 4.61167 8.55224 4.52L8.99005 1H15.01L15.4478 4.52C15.6849 4.61167 15.9086 4.72167 16.1187 4.85C16.3289 4.97833 16.5339 5.11583 16.7338 5.2625L19.99 3.8875L23 9.1125L20.1816 11.2575C20.1998 11.3858 20.209 11.5098 20.209 11.6293V12.3707C20.209 12.4902 20.1907 12.6142 20.1542 12.7425L22.9726 14.8875L19.9627 20.1125L16.7338 18.7375C16.5332 18.8842 16.3234 19.0217 16.1045 19.15C15.8856 19.2783 15.6667 19.3883 15.4478 19.48L15.01 23H8.99005ZM12.0547 15.85C13.1128 15.85 14.0158 15.4742 14.7637 14.7225C15.5116 13.9708 15.8856 13.0633 15.8856 12C15.8856 10.9367 15.5116 10.0292 14.7637 9.2775C14.0158 8.52583 13.1128 8.15 12.0547 8.15C10.9784 8.15 10.0707 8.52583 9.33154 9.2775C8.59237 10.0292 8.22315 10.9367 8.22388 12C8.22388 13.0633 8.5931 13.9708 9.33154 14.7225C10.07 15.4742 10.9777 15.85 12.0547 15.85ZM12.0547 13.65C11.5987 13.65 11.2108 13.4894 10.8912 13.1682C10.5716 12.847 10.4122 12.4576 10.4129 12C10.4129 11.5417 10.5727 11.1519 10.8923 10.8307C11.2119 10.5095 11.5994 10.3493 12.0547 10.35C12.5108 10.35 12.8986 10.5106 13.2182 10.8318C13.5378 11.153 13.6972 11.5424 13.6965 12C13.6965 12.4583 13.5367 12.8481 13.2171 13.1693C12.8975 13.4905 12.5101 13.6507 12.0547 13.65ZM10.9055 20.8H13.0672L13.4502 17.885C14.0158 17.7383 14.5404 17.5227 15.0242 17.2382C15.508 16.9537 15.9502 16.6101 16.3507 16.2075L19.0597 17.335L20.1269 15.465L17.7736 13.6775C17.8648 13.4208 17.9287 13.1506 17.9652 12.8668C18.0017 12.583 18.0199 12.2941 18.0199 12C18.0199 11.7067 18.0017 11.4181 17.9652 11.1343C17.9287 10.8505 17.8648 10.5799 17.7736 10.3225L20.1269 8.535L19.0597 6.665L16.3507 7.82C15.9494 7.39833 15.5072 7.0456 15.0242 6.7618C14.5411 6.478 14.0165 6.2624 13.4502 6.115L13.0945 3.2H10.9328L10.5498 6.115C9.98425 6.26167 9.45997 6.47727 8.97692 6.7618C8.49387 7.04633 8.05131 7.3899 7.64925 7.7925L4.9403 6.665L3.87313 8.535L6.22637 10.295C6.13516 10.57 6.07131 10.845 6.03483 11.12C5.99834 11.395 5.9801 11.6883 5.9801 12C5.9801 12.2933 5.99834 12.5775 6.03483 12.8525C6.07131 13.1275 6.13516 13.4025 6.22637 13.6775L3.87313 15.465L4.9403 17.335L7.64925 16.18C8.05058 16.6017 8.49314 16.9548 8.97692 17.2393C9.4607 17.5238 9.98498 17.7391 10.5498 17.885L10.9055 20.8Z" fill="#2F80ED"/>
</svg>
