<svg width="24" height="24" viewBox="0 0 24 24" fill="none" xmlns="http://www.w3.org/2000/svg">
<path d="M19.7 1H8.7C7.82479 1 6.98542 1.34768 6.36655 1.96655C5.74768 2.58542 5.4 3.42479 5.4 4.3V5.4H4.3C3.42479 5.4 2.58542 5.74768 1.96655 6.36655C1.34768 6.98542 1 7.82479 1 8.7V19.7C1 20.5752 1.34768 21.4146 1.96655 22.0335C2.58542 22.6523 3.42479 23 4.3 23H15.3C16.1752 23 17.0146 22.6523 17.6335 22.0335C18.2523 21.4146 18.6 20.5752 18.6 19.7V18.6H19.7C20.5752 18.6 21.4146 18.2523 22.0335 17.6335C22.6523 17.0146 23 16.1752 23 15.3V4.3C23 3.42479 22.6523 2.58542 22.0335 1.96655C21.4146 1.34768 20.5752 1 19.7 1ZM16.4 19.7C16.4 19.9917 16.2841 20.2715 16.0778 20.4778C15.8715 20.6841 15.5917 20.8 15.3 20.8H4.3C4.00826 20.8 3.72847 20.6841 3.52218 20.4778C3.31589 20.2715 3.2 19.9917 3.2 19.7V12H16.4V19.7ZM16.4 9.8H3.2V8.7C3.2 8.40826 3.31589 8.12847 3.52218 7.92218C3.72847 7.71589 4.00826 7.6 4.3 7.6H15.3C15.5917 7.6 15.8715 7.71589 16.0778 7.92218C16.2841 8.12847 16.4 8.40826 16.4 8.7V9.8ZM20.8 15.3C20.8 15.5917 20.6841 15.8715 20.4778 16.0778C20.2715 16.2841 19.9917 16.4 19.7 16.4H18.6V8.7C18.597 8.32474 18.5301 7.95274 18.402 7.6H20.8V15.3ZM20.8 5.4H7.6V4.3C7.6 4.00826 7.71589 3.72847 7.92218 3.52218C8.12847 3.31589 8.40826 3.2 8.7 3.2H19.7C19.9917 3.2 20.2715 3.31589 20.4778 3.52218C20.6841 3.72847 20.8 4.00826 20.8 4.3V5.4Z" fill="#2F80ED"/>
</svg>
