<svg width="16" height="16" viewBox="0 0 16 16" fill="none" xmlns="http://www.w3.org/2000/svg">
<path fill-rule="evenodd" clip-rule="evenodd" d="M1.49463 3.64299C1.49463 3.31162 1.76326 3.04299 2.09463 3.04299H6.89463C7.226 3.04299 7.49463 3.31162 7.49463 3.64299C7.49463 3.97436 7.226 4.24299 6.89463 4.24299H2.09463C1.76326 4.24299 1.49463 3.97436 1.49463 3.64299Z" fill="#CAC8C8"/>
<path fill-rule="evenodd" clip-rule="evenodd" d="M1.49463 12.9764C1.49463 12.645 1.76326 12.3764 2.09463 12.3764H8.22248C8.55385 12.3764 8.82248 12.645 8.82248 12.9764C8.82248 13.3077 8.55385 13.5764 8.22248 13.5764H2.09463C1.76326 13.5764 1.49463 13.3077 1.49463 12.9764Z" fill="#CAC8C8"/>
<path fill-rule="evenodd" clip-rule="evenodd" d="M1.49463 8.24407C1.49463 7.9127 1.76326 7.64407 2.09463 7.64407H8.22248C8.55385 7.64407 8.82248 7.9127 8.82248 8.24407C8.82248 8.57544 8.55385 8.84407 8.22248 8.84407H2.09463C1.76326 8.84407 1.49463 8.57544 1.49463 8.24407Z" fill="#CAC8C8"/>
<path fill-rule="evenodd" clip-rule="evenodd" d="M12.1681 4.03868C12.4995 4.03868 12.7681 4.30731 12.7681 4.63868V12.9763C12.7681 13.3077 12.4995 13.5763 12.1681 13.5763C11.8367 13.5763 11.5681 13.3077 11.5681 12.9763V4.63868C11.5681 4.30731 11.8367 4.03868 12.1681 4.03868Z" fill="#CAC8C8"/>
<path d="M11.9316 2.53665C12.0517 2.38622 12.2804 2.38622 12.4005 2.53665L14.439 5.09007C14.5959 5.28655 14.456 5.57725 14.2046 5.57725H10.1275C9.87607 5.57725 9.73618 5.28655 9.89303 5.09007L11.9316 2.53665Z" fill="#CAC8C8"/>
</svg>
