<svg width="24" height="24" viewBox="0 0 24 24" fill="none" xmlns="http://www.w3.org/2000/svg">
<path d="M12 5.4C11.8555 5.39996 11.7125 5.42839 11.579 5.48365C11.4455 5.53892 11.3243 5.61995 11.2221 5.7221C11.12 5.82425 11.0389 5.94553 10.9837 6.079C10.9284 6.21248 10.9 6.35553 10.9 6.5V10.9H8.7C8.40827 10.9 8.12848 11.0159 7.92219 11.2222C7.7159 11.4285 7.6 11.7083 7.6 12C7.6 12.2917 7.7159 12.5715 7.92219 12.7778C8.12848 12.9841 8.40827 13.1 8.7 13.1H12C12.1445 13.1 12.2875 13.0716 12.421 13.0163C12.5545 12.9611 12.6758 12.88 12.7779 12.7779C12.8801 12.6757 12.9611 12.5545 13.0163 12.421C13.0716 12.2875 13.1 12.1445 13.1 12V6.5C13.1 6.35553 13.0716 6.21248 13.0163 6.079C12.9611 5.94553 12.8801 5.82425 12.7779 5.7221C12.6758 5.61995 12.5545 5.53892 12.421 5.48365C12.2875 5.42839 12.1445 5.39996 12 5.4ZM12 1C9.82441 1 7.69767 1.64514 5.88873 2.85383C4.07979 4.06253 2.66989 5.78049 1.83733 7.79048C1.00477 9.80047 0.786929 12.0122 1.21137 14.146C1.6358 16.2798 2.68345 18.2398 4.22183 19.7782C5.76021 21.3165 7.72022 22.3642 9.85401 22.7886C11.9878 23.2131 14.1995 22.9952 16.2095 22.1627C18.2195 21.3301 19.9375 19.9202 21.1462 18.1113C22.3549 16.3023 23 14.1756 23 12C22.9967 9.08364 21.8367 6.28769 19.7745 4.22551C17.7123 2.16333 14.9164 1.00334 12 1ZM12 20.8C10.2595 20.8 8.55814 20.2839 7.11099 19.3169C5.66383 18.35 4.53592 16.9756 3.86986 15.3676C3.20381 13.7596 3.02954 11.9902 3.36909 10.2832C3.70864 8.57617 4.54676 7.00816 5.77746 5.77746C7.00817 4.54676 8.57618 3.70864 10.2832 3.36909C11.9902 3.02954 13.7596 3.20381 15.3676 3.86986C16.9756 4.53591 18.35 5.66383 19.3169 7.11098C20.2839 8.55813 20.8 10.2595 20.8 12C20.7973 14.3331 19.8693 16.5698 18.2196 18.2196C16.5699 19.8693 14.3331 20.7973 12 20.8Z" fill="black"/>
</svg>
